# xmcd
#
# Track frame offsets: 
#        150
#        15213
#        28674
#        50636
#        64587
#        74382
#        93277
#        105527
#        114068
#        131071
#        150851
#        171804
#
# Disc length: 2406 seconds
#
# Revision: 0
# Processed by: cddbd v1.5.2PL0 Copyright (c) Steve Scherf et al.
# Submitted via: ExactAudioCopy v0.99pb3
#
DISCID=8909640c
DTITLE=LeAnn Rimes - Today is Christmas
DYEAR=2015
DGENRE=Pop
TTITLE0=Today is Christmas
TTITLE1=We need a little Christmas
TTITLE2=That spirit of Christmas (feat Aloe Blacc)
TTITLE3=I still believe in Santa Claus
TTITLE4=Holly jolly Christmas - Frosty the snowman
TTITLE5=Celebrate me home (feat Gavin Degraw)
TTITLE6=Must be Santa
TTITLE7=Christmas time is here
TTITLE8=The heartache can wait
TTITLE9=Little drummer boy
TTITLE10=Joy (God rest ye merry gentlemen - Angels we have heard on hi
TTITLE10=gh - Hark the herald angels sing)
TTITLE11=Auld lang syne
EXTD=
EXTT0=
EXTT1=
EXTT2=
EXTT3=
EXTT4=
EXTT5=
EXTT6=
EXTT7=
EXTT8=
EXTT9=
EXTT10=
EXTT11=
PLAYORDER=
